HIERARCHY
ROOT Hips
{
	OFFSET 0.000000 100.481300 0.000000
	CHANNELS 6 Xposition Yposition Zposition Xrotation Yrotation Zrotation
	JOINT Spine
	{
		OFFSET -0.279200 12.230698 -2.892100
		CHANNELS 3 Xrotation Yrotation Zrotation
		JOINT Spine1
		{
			OFFSET -0.325700 14.269203 -3.374200
			CHANNELS 3 Xrotation Yrotation Zrotation
			JOINT Spine2
			{
				OFFSET -0.372300 16.307602 -0.352600
				CHANNELS 3 Xrotation Yrotation Zrotation
				JOINT Neck
				{
					OFFSET -0.418800 17.814194 8.416900
					CHANNELS 3 Xrotation Yrotation Zrotation
					JOINT Head
					{
						OFFSET 0.000000 7.031097 3.806800
						CHANNELS 3 Xrotation Yrotation Zrotation
						JOINT HeadTop_End
						{
							OFFSET 0.000000 24.646606 12.978600
							CHANNELS 3 Xrotation Yrotation Zrotation
							End Site
							{
								OFFSET 0.000000 27.854965 0.000000
							}
						}
					}
				}
				JOINT LeftShoulder
				{
					OFFSET 16.952999 14.495407 -7.737500
					CHANNELS 3 Xrotation Yrotation Zrotation
					JOINT LeftArm
					{
						OFFSET 9.308998 -2.777710 0.208600
						CHANNELS 3 Xrotation Yrotation Zrotation
						JOINT LeftForeArm
						{
							OFFSET 29.972298 0.000000 0.000000
							CHANNELS 3 Xrotation Yrotation Zrotation
							JOINT LeftHand
							{
								OFFSET 26.026505 0.000000 0.000000
								CHANNELS 3 Xrotation Yrotation Zrotation
								JOINT LeftHandThumb1
								{
									OFFSET 12.240501 -7.147949 9.207150
									CHANNELS 3 Xrotation Yrotation Zrotation
									JOINT LeftHandThumb2
									{
										OFFSET 4.138618 -2.389435 2.389433
										CHANNELS 3 Xrotation Yrotation Zrotation
										JOINT LeftHandThumb3
										{
											OFFSET 2.726913 -1.574387 1.574386
											CHANNELS 3 Xrotation Yrotation Zrotation
											JOINT LeftHandThumb4
											{
												OFFSET 3.941010 -2.275345 2.275342
												CHANNELS 3 Xrotation Yrotation Zrotation
												End Site
												{
													OFFSET -0.005798 5.087799 0.009903
												}
											}
										}
									}
								}
								JOINT LeftHandIndex1
								{
									OFFSET 24.424698 -1.985611 5.953459
									CHANNELS 3 Xrotation Yrotation Zrotation
									JOINT LeftHandIndex2
									{
										OFFSET 6.426697 0.000000 0.000000
										CHANNELS 3 Xrotation Yrotation Zrotation
										JOINT LeftHandIndex3
										{
											OFFSET 5.337898 0.000000 0.000000
											CHANNELS 3 Xrotation Yrotation Zrotation
											JOINT LeftHandIndex4
											{
												OFFSET 4.409401 0.000000 0.000000
												CHANNELS 3 Xrotation Yrotation Zrotation
												End Site
												{
													OFFSET 0.000000 4.409363 0.014373
												}
											}
										}
									}
								}
								JOINT LeftHandMiddle1
								{
									OFFSET 23.810104 0.000000 0.000000
									CHANNELS 3 Xrotation Yrotation Zrotation
									JOINT LeftHandMiddle2
									{
										OFFSET 7.176498 0.000000 0.000000
										CHANNELS 3 Xrotation Yrotation Zrotation
										JOINT LeftHandMiddle3
										{
											OFFSET 6.774902 0.000000 0.000000
											CHANNELS 3 Xrotation Yrotation Zrotation
											JOINT LeftHandMiddle4
											{
												OFFSET 5.403328 0.000000 0.000000
												CHANNELS 3 Xrotation Yrotation Zrotation
												End Site
												{
													OFFSET -0.027702 5.403244 0.017414
												}
											}
										}
									}
								}
								JOINT LeftHandRing1
								{
									OFFSET 22.908401 -0.839279 -6.020567
									CHANNELS 3 Xrotation Yrotation Zrotation
									JOINT LeftHandRing2
									{
										OFFSET 6.337502 0.000000 0.000000
										CHANNELS 3 Xrotation Yrotation Zrotation
										JOINT LeftHandRing3
										{
											OFFSET 5.779297 0.000000 0.000000
											CHANNELS 3 Xrotation Yrotation Zrotation
											JOINT LeftHandRing4
											{
												OFFSET 4.965698 0.000000 0.000000
												CHANNELS 3 Xrotation Yrotation Zrotation
												End Site
												{
													OFFSET 0.000000 4.965668 0.016186
												}
											}
										}
									}
								}
								JOINT LeftHandPinky1
								{
									OFFSET 20.037003 -1.530319 -10.950146
									CHANNELS 3 Xrotation Yrotation Zrotation
									JOINT LeftHandPinky2
									{
										OFFSET 5.254700 0.000000 0.000000
										CHANNELS 3 Xrotation Yrotation Zrotation
										JOINT LeftHandPinky3
										{
											OFFSET 4.810204 0.000000 0.000000
											CHANNELS 3 Xrotation Yrotation Zrotation
											JOINT LeftHandPinky4
											{
												OFFSET 3.647202 0.000000 0.000000
												CHANNELS 3 Xrotation Yrotation Zrotation
												End Site
												{
													OFFSET 0.000000 3.647186 0.011889
												}
											}
										}
									}
								}
							}
						}
					}
				}
				JOINT RightShoulder
				{
					OFFSET -15.141001 14.495407 -7.737500
					CHANNELS 3 Xrotation Yrotation Zrotation
					JOINT RightArm
					{
						OFFSET -9.308998 -2.777710 0.208500
						CHANNELS 3 Xrotation Yrotation Zrotation
						JOINT RightForeArm
						{
							OFFSET -29.972300 0.000000 0.000000
							CHANNELS 3 Xrotation Yrotation Zrotation
							JOINT RightHand
							{
								OFFSET -26.026505 0.000000 0.000000
								CHANNELS 3 Xrotation Yrotation Zrotation
								JOINT RightHandThumb1
								{
									OFFSET -12.240601 -7.148026 9.207092
									CHANNELS 3 Xrotation Yrotation Zrotation
									JOINT RightHandThumb2
									{
										OFFSET -4.138618 -2.389435 2.389433
										CHANNELS 3 Xrotation Yrotation Zrotation
										JOINT RightHandThumb3
										{
											OFFSET -2.726974 -1.574417 1.574421
											CHANNELS 3 Xrotation Yrotation Zrotation
											JOINT RightHandThumb4
											{
												OFFSET -3.941010 -2.275345 2.275343
												CHANNELS 3 Xrotation Yrotation Zrotation
												End Site
												{
													OFFSET 0.005814 5.087799 0.009927
												}
											}
										}
									}
								}
								JOINT RightHandIndex1
								{
									OFFSET -24.424698 -1.985657 5.953444
									CHANNELS 3 Xrotation Yrotation Zrotation
									JOINT RightHandIndex2
									{
										OFFSET -6.426697 0.000000 0.000000
										CHANNELS 3 Xrotation Yrotation Zrotation
										JOINT RightHandIndex3
										{
											OFFSET -5.337898 0.000000 0.000000
											CHANNELS 3 Xrotation Yrotation Zrotation
											JOINT RightHandIndex4
											{
												OFFSET -4.409401 0.000000 0.000000
												CHANNELS 3 Xrotation Yrotation Zrotation
												End Site
												{
													OFFSET 0.000000 4.409363 0.014408
												}
											}
										}
									}
								}
								JOINT RightHandMiddle1
								{
									OFFSET -23.810097 0.000000 0.000000
									CHANNELS 3 Xrotation Yrotation Zrotation
									JOINT RightHandMiddle2
									{
										OFFSET -7.176498 0.000000 0.000000
										CHANNELS 3 Xrotation Yrotation Zrotation
										JOINT RightHandMiddle3
										{
											OFFSET -6.774902 0.000000 0.000000
											CHANNELS 3 Xrotation Yrotation Zrotation
											JOINT RightHandMiddle4
											{
												OFFSET -5.403328 0.000000 0.000000
												CHANNELS 3 Xrotation Yrotation Zrotation
												End Site
												{
													OFFSET 0.027702 5.403244 0.017457
												}
											}
										}
									}
								}
								JOINT RightHandRing1
								{
									OFFSET -22.908302 -0.839325 -6.020576
									CHANNELS 3 Xrotation Yrotation Zrotation
									JOINT RightHandRing2
									{
										OFFSET -6.337502 0.000000 0.000000
										CHANNELS 3 Xrotation Yrotation Zrotation
										JOINT RightHandRing3
										{
											OFFSET -5.779297 0.000000 0.000000
											CHANNELS 3 Xrotation Yrotation Zrotation
											JOINT RightHandRing4
											{
												OFFSET -4.965698 0.000000 0.000000
												CHANNELS 3 Xrotation Yrotation Zrotation
												End Site
												{
													OFFSET 0.000000 4.965668 0.016226
												}
											}
										}
									}
								}
								JOINT RightHandPinky1
								{
									OFFSET -20.037003 -1.530334 -10.950259
									CHANNELS 3 Xrotation Yrotation Zrotation
									JOINT RightHandPinky2
									{
										OFFSET -5.254700 0.000000 0.000000
										CHANNELS 3 Xrotation Yrotation Zrotation
										JOINT RightHandPinky3
										{
											OFFSET -4.810204 0.000000 0.000000
											CHANNELS 3 Xrotation Yrotation Zrotation
											JOINT RightHandPinky4
											{
												OFFSET -3.647202 0.000000 0.000000
												CHANNELS 3 Xrotation Yrotation Zrotation
												End Site
												{
													OFFSET 0.000000 3.647186 0.011917
												}
											}
										}
									}
								}
							}
						}
					}
				}
			}
		}
	}
	JOINT LeftUpLeg
	{
		OFFSET 15.427100 -6.655098 0.678600
		CHANNELS 3 Xrotation Yrotation Zrotation
		JOINT LeftLeg
		{
			OFFSET 4.081073 -39.591068 13.024000
			CHANNELS 3 Xrotation Yrotation Zrotation
			JOINT LeftFoot
			{
				OFFSET -4.081074 -37.707932 -15.979700
				CHANNELS 3 Xrotation Yrotation Zrotation
				JOINT LeftToeBase
				{
					OFFSET 5.346399 -15.068900 20.645000
					CHANNELS 3 Xrotation Yrotation Zrotation
					JOINT LeftToe_End
					{
						OFFSET 2.754700 0.931300 11.300900
						CHANNELS 3 Xrotation Yrotation Zrotation
						End Site
						{
							OFFSET 0.000000 11.669021 0.000000
						}
					}
				}
			}
		}
	}
	JOINT RightUpLeg
	{
		OFFSET -15.569500 -6.655098 0.678600
		CHANNELS 3 Xrotation Yrotation Zrotation
		JOINT RightLeg
		{
			OFFSET -4.081825 -39.591045 13.023800
			CHANNELS 3 Xrotation Yrotation Zrotation
			JOINT RightFoot
			{
				OFFSET 4.081824 -37.707954 -15.979600
				CHANNELS 3 Xrotation Yrotation Zrotation
				JOINT RightToeBase
				{
					OFFSET -5.346400 -15.068900 20.645000
					CHANNELS 3 Xrotation Yrotation Zrotation
					JOINT RightToe_End
					{
						OFFSET -2.754700 0.931300 11.300900
						CHANNELS 3 Xrotation Yrotation Zrotation
						End Site
						{
							OFFSET 0.000000 11.669021 0.000000
						}
					}
				}
			}
		}
	}
}
MOTION
Frames: 5
Frame Time: 0.033333
1.998266 94.662529 -0.786038 -0.893007 1.581103 -5.487979 1.300739 -1.198002 3.145722 0.728744 0.264195 5.944688 0.710789 0.781493 5.851997 1.045309 -0.304693 -2.163987 1.584969 0.544181 -8.140512 -0.000000 -0.000000 0.000000 3.582358 -13.764042 -5.044454 4.032786 3.514248 -83.678348 0.000002 -14.506751 0.000037 -27.592520 3.698839 -9.416184 18.491277 -0.461435 10.916077 1.284050 32.757604 -3.088954 2.117128 9.311169 -0.358615 0.000000 -0.000001 0.000000 0.339564 4.671352 -7.844276 0.387034 2.823578 -20.566219 0.034631 0.816831 -10.169820 0.000001 -0.000000 -0.000002 0.912579 8.769266 -15.831759 0.919072 3.991131 -33.400431 0.170576 1.488886 -12.264408 -0.000001 0.000001 -0.000001 2.555817 11.673032 -26.909219 1.710655 3.886783 -40.215467 0.544860 1.835070 -19.344153 -0.000001 0.000000 -0.000000 5.576068 16.029170 -36.940631 1.378692 4.077648 -45.645645 0.486591 2.853389 -20.524727 0.000001 -0.000000 -0.000003 4.508131 3.324376 5.471580 -1.219628 0.655868 67.345385 0.000004 17.736789 -0.000019 -11.193157 -9.123238 10.139297 18.491281 0.461429 -10.916080 1.284089 -32.757601 3.088971 2.008696 -8.430471 1.114708 0.000001 -0.000000 -0.000001 0.339564 -4.671355 7.844304 0.387030 -2.823577 20.566219 -0.193127 -0.216347 13.843945 0.000000 -0.000000 0.000000 0.912580 -8.769265 15.831733 0.919075 -3.991131 33.400431 0.216466 -1.688832 15.898046 0.000000 -0.000000 -0.000000 2.555815 -11.673030 26.909187 1.710649 -3.886787 40.215457 -0.157954 0.035275 17.815351 0.000001 0.000000 -0.000000 5.576076 -16.029175 36.940651 1.378687 -4.077646 45.645621 -0.727750 -0.247558 22.122756 0.000000 -0.000000 0.000001 -17.280867 10.900507 17.838002 21.301425 8.460583 2.064107 -2.397201 4.177493 -10.934986 -0.441968 -0.000003 0.000003 -0.000000 -0.000000 0.000000 1.077325 -4.307598 10.251454 10.436429 -4.636672 3.762129 -10.544656 0.535124 -7.604630 -0.538968 0.000006 0.000002 0.000000 0.000000 0.000000 
1.953291 94.666779 -0.819601 -1.032428 1.628297 -5.484400 1.313149 -1.232257 3.142025 0.733723 0.249074 5.942088 0.715646 0.766370 5.849470 1.030644 -0.373227 -2.159425 1.890178 0.288340 -8.066734 -0.000000 -0.000000 -0.000000 3.737940 -13.685273 -5.120384 3.981419 2.089954 -83.460971 0.000001 -14.539470 0.000006 -27.836139 4.601979 -8.880978 18.491286 -0.461429 10.916085 1.284036 32.757618 -3.088914 2.117135 9.311156 -0.358621 0.000000 0.000001 -0.000000 0.339562 4.671352 -7.844260 0.387031 2.823581 -20.566232 0.034631 0.816837 -10.169819 0.000001 0.000001 -0.000003 0.912580 8.769271 -15.831752 0.919072 3.991132 -33.400400 0.170580 1.488885 -12.264423 -0.000002 0.000001 0.000000 2.555815 11.673025 -26.909171 1.710653 3.886787 -40.215495 0.544858 1.835072 -19.344161 -0.000000 0.000001 0.000000 5.576072 16.029163 -36.940627 1.378691 4.077644 -45.645628 0.486588 2.853389 -20.524730 0.000001 -0.000001 0.000000 4.746156 3.389473 5.503571 -1.107688 0.960904 67.251217 0.000004 17.724312 -0.000022 -10.959938 -8.905072 9.956505 18.678269 0.464237 -10.752776 1.216434 -32.577817 3.078130 1.972723 -8.283013 1.140147 0.000000 0.000000 0.000001 0.310764 -4.565260 7.725280 0.381359 -2.808421 20.405796 -0.193608 -0.202567 13.712012 -0.000000 0.000000 -0.000001 0.897314 -8.725772 15.731000 0.912716 -3.981072 33.281087 0.212701 -1.675636 15.760844 -0.000000 -0.000000 0.000000 2.547987 -11.680663 26.770974 1.703767 -3.880102 40.119203 -0.158840 0.045269 17.717738 0.000000 -0.000000 -0.000000 5.590782 -16.063413 36.789755 1.370645 -4.068317 45.522948 -0.727229 -0.233983 22.002865 0.000001 -0.000000 0.000001 -17.168766 10.910840 17.842297 21.263099 8.382004 2.088643 -2.341986 4.204284 -10.939339 -0.398166 0.000032 -0.000001 -0.000000 0.000002 0.000000 1.223214 -4.275878 10.280705 10.390235 -4.624678 3.793589 -10.518806 0.463965 -7.668772 -0.538968 0.000007 0.000002 0.000000 0.000001 -0.000000 
1.904928 94.670174 -0.855512 -1.196625 1.686807 -5.482066 1.325351 -1.272610 3.146599 0.738605 0.231397 5.941553 0.720370 0.748682 5.849027 0.996369 -0.528388 -2.148886 2.554221 -0.291171 -7.884419 -0.000000 -0.000000 -0.000000 4.048397 -13.536169 -5.217538 3.953849 0.655993 -83.147813 0.000001 -14.597429 -0.000008 -27.507887 5.473296 -8.334701 18.491286 -0.461432 10.916063 1.284053 32.757615 -3.088969 2.117139 9.311162 -0.358629 0.000000 -0.000000 0.000000 0.339564 4.671350 -7.844267 0.387032 2.823578 -20.566210 0.034630 0.816836 -10.169811 0.000001 0.000000 -0.000001 0.912583 8.769265 -15.831743 0.919074 3.991135 -33.400438 0.170577 1.488885 -12.264415 -0.000001 0.000000 0.000002 2.555817 11.673028 -26.909187 1.710645 3.886784 -40.215457 0.544862 1.835072 -19.344161 -0.000001 -0.000000 -0.000000 5.576075 16.029168 -36.940627 1.378678 4.077648 -45.645615 0.486596 2.853390 -20.524742 0.000001 -0.000000 -0.000000 5.196934 3.512788 5.563105 -0.904637 1.563037 67.072417 -0.000006 17.679251 0.000011 -10.519319 -8.503645 9.600863 19.025057 0.479324 -10.446458 1.089534 -32.239968 3.059069 1.905724 -8.009271 1.187602 0.000001 -0.000002 0.000000 0.246034 -4.368145 7.506447 0.370949 -2.780243 20.108053 -0.194424 -0.176790 13.465279 0.000000 -0.000000 0.000000 0.869187 -8.644070 15.546318 0.900852 -3.962188 33.057395 0.205758 -1.650954 15.504502 0.000000 0.000000 -0.000001 2.533156 -11.694445 26.514618 1.690799 -3.867450 39.937451 -0.160472 0.064144 17.533389 -0.000000 -0.000000 0.000000 5.617228 -16.127784 36.507047 1.355609 -4.050773 45.292887 -0.726160 -0.208507 21.777973 0.000003 -0.000000 0.000001 -17.036160 10.906074 17.829842 21.226408 8.280068 2.138198 -2.281843 4.264655 -10.952414 -0.334735 0.000002 0.000004 -0.000000 -0.000000 -0.000000 1.395194 -4.229926 10.312798 10.341930 -4.632162 3.826251 -10.495222 0.389540 -7.730865 -0.538968 0.000006 0.000002 0.000000 0.000000 0.000000 
1.852249 94.671555 -0.890506 -1.380618 1.756966 -5.480085 1.341244 -1.319431 3.157171 0.745176 0.210872 5.942486 0.726751 0.728117 5.850074 0.939234 -0.780056 -2.131538 3.592788 -1.229634 -7.550457 0.000000 0.000000 -0.000000 4.557514 -13.298210 -5.345663 3.957992 -0.796465 -82.709090 0.000000 -14.691457 -0.000031 -26.442644 6.310559 -7.798559 18.491296 -0.461435 10.916047 1.284022 32.757598 -3.088915 2.117150 9.311152 -0.358643 0.000000 0.000002 0.000001 0.339568 4.671350 -7.844267 0.387028 2.823578 -20.566210 0.034631 0.816835 -10.169813 -0.000001 0.000000 -0.000002 0.912581 8.769267 -15.831736 0.919077 3.991132 -33.400414 0.170577 1.488886 -12.264422 -0.000000 0.000001 0.000001 2.555820 11.673035 -26.909214 1.710654 3.886781 -40.215488 0.544858 1.835071 -19.344153 -0.000001 0.000000 0.000000 5.576071 16.029173 -36.940641 1.378692 4.077642 -45.645615 0.486590 2.853389 -20.524730 -0.000002 -0.000000 0.000001 5.925225 3.712624 5.656746 -0.580679 2.552781 66.760653 -0.000002 17.626845 -0.000014 -9.805928 -7.873610 9.007116 19.575092 0.519559 -9.955253 0.886597 -31.697617 3.031576 1.798862 -7.574267 1.263559 0.000001 0.000001 -0.000000 0.147675 -4.051789 7.164214 0.354688 -2.735298 19.634361 -0.195500 -0.135563 13.070695 0.000000 -0.000000 -0.000001 0.825285 -8.512789 15.256016 0.882004 -3.931829 32.699107 0.194887 -1.611455 15.094930 0.000000 0.000000 0.000001 2.508988 -11.715803 26.107529 1.669980 -3.846971 39.644528 -0.162972 0.094579 17.236220 0.000001 0.000000 0.000000 5.657903 -16.231333 36.054270 1.331660 -4.022544 44.924261 -0.724257 -0.167703 21.417574 0.000000 -0.000000 0.000001 -16.887306 10.884947 17.799278 21.194205 8.154153 2.214925 -2.219310 4.360191 -10.976959 -0.251911 -0.000005 0.000001 -0.000000 -0.000002 -0.000000 1.587714 -4.170379 10.351336 10.294382 -4.647836 3.857062 -10.477451 0.300219 -7.794290 -0.538968 0.000006 0.000002 0.000000 -0.000000 -0.000000 
1.794596 94.669357 -0.921401 -1.577625 1.835348 -5.477638 1.366000 -1.372237 3.166685 0.755788 0.187525 5.942887 0.737159 0.704692 5.850608 0.859307 -1.122635 -2.107559 4.948429 -2.500508 -7.024173 -0.000001 -0.000000 -0.000000 5.278342 -12.967985 -5.513201 3.997615 -2.278681 -82.134725 0.000003 -14.829203 0.000016 -24.591381 7.114649 -7.297406 18.491277 -0.461436 10.916078 1.284040 32.757628 -3.088928 2.117135 9.311155 -0.358637 -0.000001 -0.000002 -0.000001 0.339561 4.671355 -7.844290 0.387034 2.823578 -20.566246 0.034629 0.816838 -10.169825 0.000000 0.000000 -0.000005 0.912583 8.769265 -15.831755 0.919071 3.991136 -33.400411 0.170568 1.488886 -12.264429 -0.000001 0.000000 0.000002 2.555813 11.673028 -26.909188 1.710648 3.886787 -40.215464 0.544864 1.835071 -19.344158 -0.000002 0.000000 0.000000 5.576068 16.029168 -36.940641 1.378693 4.077642 -45.645639 0.486590 2.853390 -20.524730 -0.000001 0.000000 -0.000000 6.954120 3.996560 5.784006 -0.125185 3.969219 66.275743 -0.000011 17.599813 0.000040 -8.789700 -7.017275 8.133441 20.335889 0.603670 -9.267377 0.603537 -30.936638 2.999369 1.649691 -6.970554 1.370077 -0.000000 0.000002 0.000000 0.035244 -3.605822 6.699580 0.332675 -2.672539 18.975169 -0.196526 -0.077939 12.519308 0.000000 -0.000001 -0.000005 0.766075 -8.328270 14.857977 0.855942 -3.889134 32.197542 0.180183 -1.556182 14.523113 0.000001 -0.000000 -0.000001 2.474343 -11.744602 25.542797 1.640823 -3.817932 39.231736 -0.166218 0.137501 16.817399 -0.000001 0.000001 0.000000 5.711208 -16.377767 35.420418 1.298433 -3.982752 44.408162 -0.721156 -0.110583 20.912823 -0.000002 0.000001 0.000000 -16.728559 10.855431 17.760637 21.169842 8.012731 2.307648 -2.159290 4.474483 -11.011104 -0.171613 -0.000002 -0.000001 0.000000 0.000002 -0.000000 1.792799 -4.101498 10.398555 10.252701 -4.659369 3.884335 -10.469368 0.190384 -7.862568 -0.538968 0.000007 0.000002 -0.000000 0.000000 0.000000 
